<svg width="100" height="99" viewBox="0 0 100 99" fill="none" xmlns="http://www.w3.org/2000/svg">
<path d="M34.0465 0.757639C34.9479 0.323637 36.0313 0.622432 36.5828 1.45713L40.1855 6.90986C40.3919 7.22225 40.6818 7.47042 41.0223 7.62615L48.1164 10.8706C48.5969 11.0904 49.1449 11.111 49.6406 10.9281L58.5799 7.62953C59.004 7.47305 59.3625 7.17753 59.5971 6.79115L62.7873 1.53672C63.3179 0.662822 64.4221 0.329766 65.3474 0.764546L83.1016 9.10687C84.3391 9.68836 84.6413 11.3125 83.6957 12.3001L80.0388 16.1195C79.8056 16.3631 79.6378 16.6616 79.551 16.9874L77.1124 26.132C77.0676 26.3001 77.0449 26.4733 77.0449 26.6473V32.8672C77.0449 33.0308 77.0649 33.1937 77.1046 33.3523L78.1784 37.6474C78.2141 37.7906 78.234 37.9372 78.2375 38.0847L79.6344 96.501C79.6613 97.624 78.7583 98.5488 77.635 98.5488H21.9782C20.8515 98.5488 19.9471 97.6186 19.979 96.4923L21.6359 37.8628L22.3735 33.1135L23.0426 26.8043C23.0719 26.528 23.0433 26.2485 22.9586 25.9838L20.0544 16.908C19.9664 16.6331 19.82 16.3805 19.6251 16.1675L16.064 12.2752C15.1592 11.2862 15.4643 9.70462 16.672 9.12314L34.0465 0.757639Z" fill="#D9D9D9"/>
<path d="M85.6201 10.2902L100 32.8496L82.7509 43.1398L78.2322 37.7309L76.5172 32.058V25.5937L77.5726 18.9974L80.9777 15.1216L85.6201 10.2902Z" fill="#001AFF"/>
<path d="M14.3799 10.2902L-1.19209e-07 32.8496L17.2491 43.1398L21.7678 37.7309L23.4828 32.058V25.5937L22.4274 18.9974L19.0223 15.1216L14.3799 10.2902Z" fill="#FF3A3A"/>
</svg>
