<svg width="269" height="374" viewBox="0 0 269 374" fill="none" xmlns="http://www.w3.org/2000/svg">
<path d="M78.4264 0.757639C79.3278 0.323637 80.4113 0.622433 80.9627 1.45713L98.1842 27.522C98.3906 27.8344 98.6805 28.0826 99.021 28.2383L129.454 42.1569C129.935 42.3766 130.483 42.3973 130.979 42.2144L168.845 28.2417C169.269 28.0852 169.628 27.7897 169.862 27.4033L185.567 1.53672C186.098 0.662822 187.202 0.329766 188.127 0.764546L266.982 37.8166C268.219 38.3981 268.521 40.0223 267.576 41.0099L247.355 62.1288C247.122 62.3723 246.954 62.6708 246.868 62.9966L237.068 99.7468C237.023 99.9149 237 100.088 237 100.262V125.254C237 125.417 237.02 125.58 237.06 125.739L241.446 143.285C241.482 143.428 241.502 143.574 241.505 143.722L246.951 371.452C246.978 372.575 246.075 373.5 244.952 373.5H22.5573C21.4306 373.5 20.5263 372.57 20.5581 371.444L27 143.5L29.7954 125.5L32.4555 100.419C32.4849 100.143 32.4563 99.8633 32.3716 99.5986L20.6335 62.9172C20.5455 62.6423 20.3991 62.3897 20.2043 62.1768L0.816001 40.9849C-0.0887843 39.996 0.21628 38.4144 1.42398 37.8329L78.4264 0.757639Z" fill="#D9D9D9"/>
</svg>
